# Blender v2.64 (sub 0) OBJ File: 'allegro_flare_logo-02.blend'
# www.blender.org
o Cube.003
v -1.000000 0.000000 -1.000000
v -1.000000 0.000000 -3.000000
v 3.000000 0.000000 -2.999999
v 2.999999 0.000000 -0.999999
v -1.000001 1.000000 -1.000001
v -0.999998 1.000000 -3.000001
v 3.000001 1.000000 -2.999999
v 3.000000 1.000000 -1.000000
v 1.000000 0.000000 -1.000000
v 1.000000 1.000000 -1.000001
v 2.999999 0.000000 1.000001
v 2.999999 1.000000 1.000000
v 0.999999 0.000000 1.000000
v 0.999999 1.000000 1.000000
v -2.000000 0.000000 -1.000000
v -1.000000 0.000000 -1.000000
v -1.000000 0.000000 1.000000
v -2.000000 0.000000 1.000000
v -1.999999 1.000000 -1.000000
v -0.999999 1.000000 -0.999999
v -1.000000 1.000000 1.000000
v -2.000000 1.000000 1.000000
v -1.000000 0.000000 2.000000
v -1.000000 0.000000 3.000000
v -3.000000 0.000000 3.000000
v -3.000000 0.000000 2.000000
v -1.000000 1.000000 2.000000
v -1.000001 1.000000 3.000000
v -3.000000 1.000000 3.000000
v -3.000000 1.000000 2.000000
v -2.000000 0.000000 2.000000
v -2.000000 1.000000 2.000000
v -3.000000 0.000000 1.000000
v -3.000000 1.000000 1.000000
v -2.000000 0.000000 1.000000
v -2.000000 1.000000 1.000000
v 1.000000 0.000000 1.000000
v 1.000000 0.000000 2.000000
v -1.000000 0.000000 2.000000
v -1.000000 0.000000 1.000000
v 1.000000 1.000000 1.000000
v 0.999999 1.000000 2.000000
v -1.000000 1.000000 2.000000
v -1.000000 1.000000 1.000000
vt 0.499389 0.599327
vt 0.498777 0.798594
vt 0.399144 0.798288
vt 0.500000 0.400061
vt 0.400367 0.399755
vt 0.399755 0.599022
vt 0.099939 0.599327
vt 0.000306 0.599633
vt 0.000000 0.500000
vt 0.099633 0.499694
vt 0.199572 0.599022
vt 0.099328 0.400061
vt 0.198961 0.399755
vt 0.900061 0.599327
vt 0.800428 0.599633
vt 0.799817 0.400366
vt 0.899450 0.400061
vt 0.299511 0.798594
vt 0.298288 0.400061
vt 0.397922 0.399755
vt 0.099633 0.699572
vt 0.099328 0.599939
vt 0.198961 0.599633
vt 0.199572 0.798900
vt 0.099939 0.799205
vt 0.199267 0.699266
vt 0.700489 0.799511
vt 0.800122 0.799205
vt 0.800734 0.998471
vt 0.701101 0.998777
vt 0.798288 0.000306
vt 0.897922 0.000000
vt 0.898533 0.199266
vt 0.798900 0.199572
vt 0.699572 0.400366
vt 0.799205 0.400061
vt 0.799817 0.599327
vt 0.700183 0.599633
vt 0.399144 0.798900
vt 0.499389 0.997860
vt 0.399755 0.998166
vt 0.600245 0.799511
vt 0.599633 0.998777
vt 0.500000 0.998472
vt 0.500611 0.799205
vt 0.900367 0.499694
vt 0.900061 0.400061
vt 0.999694 0.399755
vt 1.000000 0.499388
vt 0.600245 0.798899
vt 0.500000 0.599939
vt 0.599633 0.599633
vt 0.099939 0.899144
vt 0.099633 0.799511
vt 0.199266 0.799205
vt 0.199572 0.898839
vt 0.600245 0.599939
vt 0.699878 0.599633
vt 0.700489 0.798899
vt 0.600856 0.799205
vt 0.200489 0.399144
vt 0.001223 0.399755
vt 0.000000 0.001222
vt 0.199878 0.199878
vt 0.199267 0.000611
vt 0.399144 0.199266
vt 0.398533 0.000000
vt 0.597799 0.399144
vt 0.798288 0.001222
vt 0.797066 0.399755
vt 0.598411 0.199878
vt 0.599022 0.000611
vt 0.399755 0.000000
vt 0.700489 0.898838
vt 0.600856 0.899144
vt 0.600550 0.799511
vt 0.700184 0.799205
vt 0.398533 0.997860
vt 0.298900 0.998166
vt 0.298288 0.798899
vt 0.397922 0.798594
vt 0.199266 0.899144
vt 0.199572 0.998777
vt 0.099939 0.999083
vt 0.099633 0.899450
vt 0.900367 0.599633
vt 0.900061 0.500000
vt 0.999694 0.499694
vt 1.000000 0.599327
vt 0.898533 0.200489
vt 0.998166 0.200183
vt 0.998472 0.299816
vt 0.898838 0.300122
vt 0.700489 0.599939
vt 0.800122 0.599633
vt 0.800734 0.798899
vt 0.701100 0.799205
vt 0.900978 0.799511
vt 0.900367 0.998777
vt 0.800734 0.998472
vt 0.801345 0.799205
vt 0.700184 0.899144
vt 0.700489 0.998777
vt 0.600856 0.999083
vt 0.600550 0.899450
vt 0.900978 0.798899
vt 0.800734 0.599939
vt 0.998166 0.099633
vt 0.998472 0.199266
vt 0.898838 0.199572
vt 0.898533 0.099939
vt 0.798288 0.200489
vt 0.897921 0.200183
vt 0.898533 0.399450
vt 0.798900 0.399755
vt 0.699572 0.500000
vt 0.699266 0.599633
vt 0.599633 0.599327
vt 0.599939 0.499694
vt 0.500000 0.599022
vt 0.600245 0.400061
vt 0.500611 0.399755
vn 1.000000 -0.000000 0.000000
vn 0.630593 -0.776114 0.000000
vn 0.000000 -1.000000 -0.000000
vn -1.000000 0.000000 -0.000001
vn 0.000000 -0.000000 -1.000000
vn -1.000000 -0.000000 -0.000000
vn -0.630593 -0.776114 -0.000000
vn -0.000000 0.000001 1.000000
vn 0.000000 1.000000 0.000000
vn 0.000001 0.000000 -1.000000
vn -0.000001 -0.000000 1.000000
vn 1.000000 0.000000 0.000001
vn -0.000000 -0.000000 1.000000
s off
f 8/1/1 12/2/1 11/3/1
f 7/4/1 8/1/1 11/3/1
f 3/5/1 7/4/1 11/3/1
f 3/5/2 11/3/2 4/6/2
f 26/7/3 33/8/3 35/9/3
f 26/7/3 35/9/3 31/10/3
f 25/11/3 26/7/3 31/10/3
f 23/12/3 25/11/3 31/10/3
f 23/12/3 24/13/3 25/11/3
f 1/14/4 5/15/4 6/16/4
f 1/14/4 6/16/4 2/17/4
f 2/3/5 6/18/5 7/19/5
f 2/3/5 7/19/5 3/20/5
f 30/21/6 34/22/6 33/23/6
f 25/24/6 29/25/6 30/21/6
f 25/24/6 30/21/6 33/23/6
f 25/24/7 33/23/7 26/26/7
f 5/27/8 1/28/8 9/29/8
f 5/27/8 9/29/8 10/30/8
f 10/31/6 9/32/6 13/33/6
f 10/31/6 13/33/6 14/34/6
f 14/35/8 13/36/8 11/37/8
f 14/35/8 11/37/8 12/38/8
f 15/39/3 16/2/3 17/40/3
f 15/39/3 17/40/3 18/41/3
f 19/42/9 22/43/9 21/44/9
f 19/42/9 21/44/9 20/45/9
f 15/46/10 19/47/10 20/48/10
f 15/46/10 20/48/10 16/49/10
f 16/50/1 20/45/1 21/51/1
f 16/50/1 21/51/1 17/52/1
f 17/53/11 21/54/11 22/55/11
f 17/53/11 22/55/11 18/56/11
f 19/57/6 15/58/6 18/59/6
f 19/57/6 18/59/6 22/60/6
f 1/61/3 2/62/3 3/63/3
f 1/61/3 3/63/3 9/64/3
f 3/63/3 4/65/3 9/64/3
f 4/65/3 13/66/3 9/64/3
f 4/65/3 11/67/3 13/66/3
f 5/68/9 7/69/9 6/70/9
f 5/68/9 10/71/9 7/69/9
f 10/71/9 8/72/9 7/69/9
f 10/71/9 14/66/9 8/72/9
f 14/66/9 12/73/9 8/72/9
f 23/74/12 27/75/12 28/76/12
f 23/74/12 28/76/12 24/77/12
f 24/78/13 28/79/13 29/80/13
f 24/78/13 29/80/13 25/81/13
f 27/82/5 23/83/5 31/84/5
f 27/82/5 31/84/5 32/85/5
f 32/86/1 31/87/1 35/88/1
f 32/86/1 35/88/1 36/89/1
f 36/90/5 35/91/5 33/92/5
f 36/90/5 33/92/5 34/93/5
f 37/94/3 38/95/3 39/96/3
f 37/94/3 39/96/3 40/97/3
f 41/98/9 44/99/9 43/100/9
f 41/98/9 43/100/9 42/101/9
f 37/102/12 41/103/12 42/104/12
f 37/102/12 42/104/12 38/105/12
f 38/106/13 42/101/13 43/107/13
f 38/106/13 43/107/13 39/86/13
f 39/108/6 43/109/6 44/110/6
f 39/108/6 44/110/6 40/111/6
f 41/112/5 37/113/5 40/114/5
f 41/112/5 40/114/5 44/115/5
f 36/116/9 34/117/9 30/118/9
f 32/119/9 36/116/9 30/118/9
f 32/119/9 30/118/9 29/120/9
f 27/121/9 32/119/9 29/120/9
f 27/121/9 29/120/9 28/122/9
