# Blender v2.64 (sub 0) OBJ File: ''
# www.blender.org
o Cube
v 5.000000 0.000000 -5.000000
v 5.000000 0.000000 5.000000
v -5.000000 0.000000 4.999999
v -4.999998 0.000000 -5.000002
v 5.000002 10.000000 -4.999997
v 4.999997 10.000000 5.000003
v -5.000002 10.000000 4.999998
v -5.000000 10.000000 -5.000000
vt 1.000000 1.000000
vt 0.000000 1.000000
vt 0.000000 0.000000
vt 1.000000 0.000000
vt 0.000000 1.000000
vt 1.000000 1.000000
vn 0.000000 1.000000 0.000000
vn 0.000000 -1.000000 0.000000
vn -1.000000 -0.000000 -0.000000
vn 0.000000 0.000000 -1.000000
vn 1.000000 0.000000 0.000000
vn -0.000000 -0.000000 1.000000
s off
f 1/1/1 4/2/1 3/3/1
f 1/1/1 3/3/1 2/4/1
f 5/3/2 6/4/2 7/1/2
f 5/3/2 7/1/2 8/5/2
f 1/2/3 2/3/3 6/4/3
f 1/2/3 6/4/3 5/1/3
f 2/2/4 3/3/4 7/4/4
f 2/2/4 7/4/4 6/6/4
f 3/1/5 4/2/5 8/3/5
f 3/1/5 8/3/5 7/4/5
f 4/1/6 1/2/6 5/3/6
f 4/1/6 5/3/6 8/4/6
